<?xml version="1.0" encoding="utf-8" standalone="no"?>
<!DOCTYPE svg PUBLIC "-//W3C//DTD SVG 1.1//EN"
  "http://www.w3.org/Graphics/SVG/1.1/DTD/svg11.dtd">
<svg xmlns:xlink="http://www.w3.org/1999/xlink" width="576pt" height="432pt" viewBox="0 0 576 432" xmlns="http://www.w3.org/2000/svg" version="1.1">
 <metadata>
  <rdf:RDF xmlns:dc="http://purl.org/dc/elements/1.1/" xmlns:cc="http://creativecommons.org/ns#" xmlns:rdf="http://www.w3.org/1999/02/22-rdf-syntax-ns#">
   <cc:Work>
    <dc:type rdf:resource="http://purl.org/dc/dcmitype/StillImage"/>
    <dc:date>2025-06-20T12:38:53.105721</dc:date>
    <dc:format>image/svg+xml</dc:format>
    <dc:creator>
     <cc:Agent>
      <dc:title>Matplotlib v3.10.3, https://matplotlib.org/</dc:title>
     </cc:Agent>
    </dc:creator>
   </cc:Work>
  </rdf:RDF>
 </metadata>
 <defs>
  <style type="text/css">*{stroke-linejoin: round; stroke-linecap: butt}</style>
 </defs>
 <g id="figure_1">
  <g id="patch_1">
   <path d="M 0 432 
L 576 432 
L 576 0 
L 0 0 
L 0 432 
z
" style="fill: none"/>
  </g>
  <g id="axes_1">
   <g id="patch_2">
    <path d="M 78.41 374.92 
L 558.72 374.92 
L 558.72 51.12 
L 78.41 51.12 
L 78.41 374.92 
z
" style="fill: none"/>
   </g>
   <g id="matplotlib.axis_1">
    <g id="xtick_1">
     <g id="line2d_1">
      <defs>
       <path id="m6e79b0b776" d="M 0 0 
L 0 3.5 
" style="stroke: #f5f5f5; stroke-width: 0.8"/>
      </defs>
      <g>
       <use xlink:href="#m6e79b0b776" x="100.242273" y="374.92" style="fill: #f5f5f5; stroke: #f5f5f5; stroke-width: 0.8"/>
      </g>
     </g>
     <g id="text_1">
      <!-- 0 -->
      <g style="fill: #f5f5f5" transform="translate(95.152273 394.0775) scale(0.16 -0.16)">
       <defs>
        <path id="DejaVuSans-30" d="M 2034 4250 
Q 1547 4250 1301 3770 
Q 1056 3291 1056 2328 
Q 1056 1369 1301 889 
Q 1547 409 2034 409 
Q 2525 409 2770 889 
Q 3016 1369 3016 2328 
Q 3016 3291 2770 3770 
Q 2525 4250 2034 4250 
z
M 2034 4750 
Q 2819 4750 3233 4129 
Q 3647 3509 3647 2328 
Q 3647 1150 3233 529 
Q 2819 -91 2034 -91 
Q 1250 -91 836 529 
Q 422 1150 422 2328 
Q 422 3509 836 4129 
Q 1250 4750 2034 4750 
z
" transform="scale(0.015625)"/>
       </defs>
       <use xlink:href="#DejaVuSans-30"/>
      </g>
     </g>
    </g>
    <g id="xtick_2">
     <g id="line2d_2">
      <g>
       <use xlink:href="#m6e79b0b776" x="199.479876" y="374.92" style="fill: #f5f5f5; stroke: #f5f5f5; stroke-width: 0.8"/>
      </g>
     </g>
     <g id="text_2">
      <!-- 100 -->
      <g style="fill: #f5f5f5" transform="translate(184.209876 394.0775) scale(0.16 -0.16)">
       <defs>
        <path id="DejaVuSans-31" d="M 794 531 
L 1825 531 
L 1825 4091 
L 703 3866 
L 703 4441 
L 1819 4666 
L 2450 4666 
L 2450 531 
L 3481 531 
L 3481 0 
L 794 0 
L 794 531 
z
" transform="scale(0.015625)"/>
       </defs>
       <use xlink:href="#DejaVuSans-31"/>
       <use xlink:href="#DejaVuSans-30" transform="translate(63.623047 0)"/>
       <use xlink:href="#DejaVuSans-30" transform="translate(127.246094 0)"/>
      </g>
     </g>
    </g>
    <g id="xtick_3">
     <g id="line2d_3">
      <g>
       <use xlink:href="#m6e79b0b776" x="298.717479" y="374.92" style="fill: #f5f5f5; stroke: #f5f5f5; stroke-width: 0.8"/>
      </g>
     </g>
     <g id="text_3">
      <!-- 200 -->
      <g style="fill: #f5f5f5" transform="translate(283.447479 394.0775) scale(0.16 -0.16)">
       <defs>
        <path id="DejaVuSans-32" d="M 1228 531 
L 3431 531 
L 3431 0 
L 469 0 
L 469 531 
Q 828 903 1448 1529 
Q 2069 2156 2228 2338 
Q 2531 2678 2651 2914 
Q 2772 3150 2772 3378 
Q 2772 3750 2511 3984 
Q 2250 4219 1831 4219 
Q 1534 4219 1204 4116 
Q 875 4013 500 3803 
L 500 4441 
Q 881 4594 1212 4672 
Q 1544 4750 1819 4750 
Q 2544 4750 2975 4387 
Q 3406 4025 3406 3419 
Q 3406 3131 3298 2873 
Q 3191 2616 2906 2266 
Q 2828 2175 2409 1742 
Q 1991 1309 1228 531 
z
" transform="scale(0.015625)"/>
       </defs>
       <use xlink:href="#DejaVuSans-32"/>
       <use xlink:href="#DejaVuSans-30" transform="translate(63.623047 0)"/>
       <use xlink:href="#DejaVuSans-30" transform="translate(127.246094 0)"/>
      </g>
     </g>
    </g>
    <g id="xtick_4">
     <g id="line2d_4">
      <g>
       <use xlink:href="#m6e79b0b776" x="397.955083" y="374.92" style="fill: #f5f5f5; stroke: #f5f5f5; stroke-width: 0.8"/>
      </g>
     </g>
     <g id="text_4">
      <!-- 300 -->
      <g style="fill: #f5f5f5" transform="translate(382.685083 394.0775) scale(0.16 -0.16)">
       <defs>
        <path id="DejaVuSans-33" d="M 2597 2516 
Q 3050 2419 3304 2112 
Q 3559 1806 3559 1356 
Q 3559 666 3084 287 
Q 2609 -91 1734 -91 
Q 1441 -91 1130 -33 
Q 819 25 488 141 
L 488 750 
Q 750 597 1062 519 
Q 1375 441 1716 441 
Q 2309 441 2620 675 
Q 2931 909 2931 1356 
Q 2931 1769 2642 2001 
Q 2353 2234 1838 2234 
L 1294 2234 
L 1294 2753 
L 1863 2753 
Q 2328 2753 2575 2939 
Q 2822 3125 2822 3475 
Q 2822 3834 2567 4026 
Q 2313 4219 1838 4219 
Q 1578 4219 1281 4162 
Q 984 4106 628 3988 
L 628 4550 
Q 988 4650 1302 4700 
Q 1616 4750 1894 4750 
Q 2613 4750 3031 4423 
Q 3450 4097 3450 3541 
Q 3450 3153 3228 2886 
Q 3006 2619 2597 2516 
z
" transform="scale(0.015625)"/>
       </defs>
       <use xlink:href="#DejaVuSans-33"/>
       <use xlink:href="#DejaVuSans-30" transform="translate(63.623047 0)"/>
       <use xlink:href="#DejaVuSans-30" transform="translate(127.246094 0)"/>
      </g>
     </g>
    </g>
    <g id="xtick_5">
     <g id="line2d_5">
      <g>
       <use xlink:href="#m6e79b0b776" x="497.192686" y="374.92" style="fill: #f5f5f5; stroke: #f5f5f5; stroke-width: 0.8"/>
      </g>
     </g>
     <g id="text_5">
      <!-- 400 -->
      <g style="fill: #f5f5f5" transform="translate(481.922686 394.0775) scale(0.16 -0.16)">
       <defs>
        <path id="DejaVuSans-34" d="M 2419 4116 
L 825 1625 
L 2419 1625 
L 2419 4116 
z
M 2253 4666 
L 3047 4666 
L 3047 1625 
L 3713 1625 
L 3713 1100 
L 3047 1100 
L 3047 0 
L 2419 0 
L 2419 1100 
L 313 1100 
L 313 1709 
L 2253 4666 
z
" transform="scale(0.015625)"/>
       </defs>
       <use xlink:href="#DejaVuSans-34"/>
       <use xlink:href="#DejaVuSans-30" transform="translate(63.623047 0)"/>
       <use xlink:href="#DejaVuSans-30" transform="translate(127.246094 0)"/>
      </g>
     </g>
    </g>
    <g id="text_6">
     <!-- Step -->
     <g style="fill: #f5f5f5" transform="translate(300.34875 413.5625) scale(0.16 -0.16)">
      <defs>
       <path id="DejaVuSans-53" d="M 3425 4513 
L 3425 3897 
Q 3066 4069 2747 4153 
Q 2428 4238 2131 4238 
Q 1616 4238 1336 4038 
Q 1056 3838 1056 3469 
Q 1056 3159 1242 3001 
Q 1428 2844 1947 2747 
L 2328 2669 
Q 3034 2534 3370 2195 
Q 3706 1856 3706 1288 
Q 3706 609 3251 259 
Q 2797 -91 1919 -91 
Q 1588 -91 1214 -16 
Q 841 59 441 206 
L 441 856 
Q 825 641 1194 531 
Q 1563 422 1919 422 
Q 2459 422 2753 634 
Q 3047 847 3047 1241 
Q 3047 1584 2836 1778 
Q 2625 1972 2144 2069 
L 1759 2144 
Q 1053 2284 737 2584 
Q 422 2884 422 3419 
Q 422 4038 858 4394 
Q 1294 4750 2059 4750 
Q 2388 4750 2728 4690 
Q 3069 4631 3425 4513 
z
" transform="scale(0.015625)"/>
       <path id="DejaVuSans-74" d="M 1172 4494 
L 1172 3500 
L 2356 3500 
L 2356 3053 
L 1172 3053 
L 1172 1153 
Q 1172 725 1289 603 
Q 1406 481 1766 481 
L 2356 481 
L 2356 0 
L 1766 0 
Q 1100 0 847 248 
Q 594 497 594 1153 
L 594 3053 
L 172 3053 
L 172 3500 
L 594 3500 
L 594 4494 
L 1172 4494 
z
" transform="scale(0.015625)"/>
       <path id="DejaVuSans-65" d="M 3597 1894 
L 3597 1613 
L 953 1613 
Q 991 1019 1311 708 
Q 1631 397 2203 397 
Q 2534 397 2845 478 
Q 3156 559 3463 722 
L 3463 178 
Q 3153 47 2828 -22 
Q 2503 -91 2169 -91 
Q 1331 -91 842 396 
Q 353 884 353 1716 
Q 353 2575 817 3079 
Q 1281 3584 2069 3584 
Q 2775 3584 3186 3129 
Q 3597 2675 3597 1894 
z
M 3022 2063 
Q 3016 2534 2758 2815 
Q 2500 3097 2075 3097 
Q 1594 3097 1305 2825 
Q 1016 2553 972 2059 
L 3022 2063 
z
" transform="scale(0.015625)"/>
       <path id="DejaVuSans-70" d="M 1159 525 
L 1159 -1331 
L 581 -1331 
L 581 3500 
L 1159 3500 
L 1159 2969 
Q 1341 3281 1617 3432 
Q 1894 3584 2278 3584 
Q 2916 3584 3314 3078 
Q 3713 2572 3713 1747 
Q 3713 922 3314 415 
Q 2916 -91 2278 -91 
Q 1894 -91 1617 61 
Q 1341 213 1159 525 
z
M 3116 1747 
Q 3116 2381 2855 2742 
Q 2594 3103 2138 3103 
Q 1681 3103 1420 2742 
Q 1159 2381 1159 1747 
Q 1159 1113 1420 752 
Q 1681 391 2138 391 
Q 2594 391 2855 752 
Q 3116 1113 3116 1747 
z
" transform="scale(0.015625)"/>
      </defs>
      <use xlink:href="#DejaVuSans-53"/>
      <use xlink:href="#DejaVuSans-74" transform="translate(63.476562 0)"/>
      <use xlink:href="#DejaVuSans-65" transform="translate(102.685547 0)"/>
      <use xlink:href="#DejaVuSans-70" transform="translate(164.208984 0)"/>
     </g>
    </g>
   </g>
   <g id="matplotlib.axis_2">
    <g id="ytick_1">
     <g id="line2d_6">
      <defs>
       <path id="ma0cba039d6" d="M 0 0 
L -3.5 0 
" style="stroke: #f5f5f5; stroke-width: 0.8"/>
      </defs>
      <g>
       <use xlink:href="#ma0cba039d6" x="78.41" y="373.805272" style="fill: #f5f5f5; stroke: #f5f5f5; stroke-width: 0.8"/>
      </g>
     </g>
     <g id="text_7">
      <!-- 0.14 -->
      <g style="fill: #f5f5f5" transform="translate(35.785 379.884022) scale(0.16 -0.16)">
       <defs>
        <path id="DejaVuSans-2e" d="M 684 794 
L 1344 794 
L 1344 0 
L 684 0 
L 684 794 
z
" transform="scale(0.015625)"/>
       </defs>
       <use xlink:href="#DejaVuSans-30"/>
       <use xlink:href="#DejaVuSans-2e" transform="translate(63.623047 0)"/>
       <use xlink:href="#DejaVuSans-31" transform="translate(95.410156 0)"/>
       <use xlink:href="#DejaVuSans-34" transform="translate(159.033203 0)"/>
      </g>
     </g>
    </g>
    <g id="ytick_2">
     <g id="line2d_7">
      <g>
       <use xlink:href="#ma0cba039d6" x="78.41" y="313.345476" style="fill: #f5f5f5; stroke: #f5f5f5; stroke-width: 0.8"/>
      </g>
     </g>
     <g id="text_8">
      <!-- 0.16 -->
      <g style="fill: #f5f5f5" transform="translate(35.785 319.424226) scale(0.16 -0.16)">
       <defs>
        <path id="DejaVuSans-36" d="M 2113 2584 
Q 1688 2584 1439 2293 
Q 1191 2003 1191 1497 
Q 1191 994 1439 701 
Q 1688 409 2113 409 
Q 2538 409 2786 701 
Q 3034 994 3034 1497 
Q 3034 2003 2786 2293 
Q 2538 2584 2113 2584 
z
M 3366 4563 
L 3366 3988 
Q 3128 4100 2886 4159 
Q 2644 4219 2406 4219 
Q 1781 4219 1451 3797 
Q 1122 3375 1075 2522 
Q 1259 2794 1537 2939 
Q 1816 3084 2150 3084 
Q 2853 3084 3261 2657 
Q 3669 2231 3669 1497 
Q 3669 778 3244 343 
Q 2819 -91 2113 -91 
Q 1303 -91 875 529 
Q 447 1150 447 2328 
Q 447 3434 972 4092 
Q 1497 4750 2381 4750 
Q 2619 4750 2861 4703 
Q 3103 4656 3366 4563 
z
" transform="scale(0.015625)"/>
       </defs>
       <use xlink:href="#DejaVuSans-30"/>
       <use xlink:href="#DejaVuSans-2e" transform="translate(63.623047 0)"/>
       <use xlink:href="#DejaVuSans-31" transform="translate(95.410156 0)"/>
       <use xlink:href="#DejaVuSans-36" transform="translate(159.033203 0)"/>
      </g>
     </g>
    </g>
    <g id="ytick_3">
     <g id="line2d_8">
      <g>
       <use xlink:href="#ma0cba039d6" x="78.41" y="252.885679" style="fill: #f5f5f5; stroke: #f5f5f5; stroke-width: 0.8"/>
      </g>
     </g>
     <g id="text_9">
      <!-- 0.18 -->
      <g style="fill: #f5f5f5" transform="translate(35.785 258.964429) scale(0.16 -0.16)">
       <defs>
        <path id="DejaVuSans-38" d="M 2034 2216 
Q 1584 2216 1326 1975 
Q 1069 1734 1069 1313 
Q 1069 891 1326 650 
Q 1584 409 2034 409 
Q 2484 409 2743 651 
Q 3003 894 3003 1313 
Q 3003 1734 2745 1975 
Q 2488 2216 2034 2216 
z
M 1403 2484 
Q 997 2584 770 2862 
Q 544 3141 544 3541 
Q 544 4100 942 4425 
Q 1341 4750 2034 4750 
Q 2731 4750 3128 4425 
Q 3525 4100 3525 3541 
Q 3525 3141 3298 2862 
Q 3072 2584 2669 2484 
Q 3125 2378 3379 2068 
Q 3634 1759 3634 1313 
Q 3634 634 3220 271 
Q 2806 -91 2034 -91 
Q 1263 -91 848 271 
Q 434 634 434 1313 
Q 434 1759 690 2068 
Q 947 2378 1403 2484 
z
M 1172 3481 
Q 1172 3119 1398 2916 
Q 1625 2713 2034 2713 
Q 2441 2713 2670 2916 
Q 2900 3119 2900 3481 
Q 2900 3844 2670 4047 
Q 2441 4250 2034 4250 
Q 1625 4250 1398 4047 
Q 1172 3844 1172 3481 
z
" transform="scale(0.015625)"/>
       </defs>
       <use xlink:href="#DejaVuSans-30"/>
       <use xlink:href="#DejaVuSans-2e" transform="translate(63.623047 0)"/>
       <use xlink:href="#DejaVuSans-31" transform="translate(95.410156 0)"/>
       <use xlink:href="#DejaVuSans-38" transform="translate(159.033203 0)"/>
      </g>
     </g>
    </g>
    <g id="ytick_4">
     <g id="line2d_9">
      <g>
       <use xlink:href="#ma0cba039d6" x="78.41" y="192.425882" style="fill: #f5f5f5; stroke: #f5f5f5; stroke-width: 0.8"/>
      </g>
     </g>
     <g id="text_10">
      <!-- 0.20 -->
      <g style="fill: #f5f5f5" transform="translate(35.785 198.504632) scale(0.16 -0.16)">
       <use xlink:href="#DejaVuSans-30"/>
       <use xlink:href="#DejaVuSans-2e" transform="translate(63.623047 0)"/>
       <use xlink:href="#DejaVuSans-32" transform="translate(95.410156 0)"/>
       <use xlink:href="#DejaVuSans-30" transform="translate(159.033203 0)"/>
      </g>
     </g>
    </g>
    <g id="ytick_5">
     <g id="line2d_10">
      <g>
       <use xlink:href="#ma0cba039d6" x="78.41" y="131.966085" style="fill: #f5f5f5; stroke: #f5f5f5; stroke-width: 0.8"/>
      </g>
     </g>
     <g id="text_11">
      <!-- 0.22 -->
      <g style="fill: #f5f5f5" transform="translate(35.785 138.044835) scale(0.16 -0.16)">
       <use xlink:href="#DejaVuSans-30"/>
       <use xlink:href="#DejaVuSans-2e" transform="translate(63.623047 0)"/>
       <use xlink:href="#DejaVuSans-32" transform="translate(95.410156 0)"/>
       <use xlink:href="#DejaVuSans-32" transform="translate(159.033203 0)"/>
      </g>
     </g>
    </g>
    <g id="ytick_6">
     <g id="line2d_11">
      <g>
       <use xlink:href="#ma0cba039d6" x="78.41" y="71.506288" style="fill: #f5f5f5; stroke: #f5f5f5; stroke-width: 0.8"/>
      </g>
     </g>
     <g id="text_12">
      <!-- 0.24 -->
      <g style="fill: #f5f5f5" transform="translate(35.785 77.585038) scale(0.16 -0.16)">
       <use xlink:href="#DejaVuSans-30"/>
       <use xlink:href="#DejaVuSans-2e" transform="translate(63.623047 0)"/>
       <use xlink:href="#DejaVuSans-32" transform="translate(95.410156 0)"/>
       <use xlink:href="#DejaVuSans-34" transform="translate(159.033203 0)"/>
      </g>
     </g>
    </g>
    <g id="text_13">
     <!-- Usage Rate -->
     <g style="fill: #f5f5f5" transform="translate(28.4575 258.82875) rotate(-90) scale(0.16 -0.16)">
      <defs>
       <path id="DejaVuSans-55" d="M 556 4666 
L 1191 4666 
L 1191 1831 
Q 1191 1081 1462 751 
Q 1734 422 2344 422 
Q 2950 422 3222 751 
Q 3494 1081 3494 1831 
L 3494 4666 
L 4128 4666 
L 4128 1753 
Q 4128 841 3676 375 
Q 3225 -91 2344 -91 
Q 1459 -91 1007 375 
Q 556 841 556 1753 
L 556 4666 
z
" transform="scale(0.015625)"/>
       <path id="DejaVuSans-73" d="M 2834 3397 
L 2834 2853 
Q 2591 2978 2328 3040 
Q 2066 3103 1784 3103 
Q 1356 3103 1142 2972 
Q 928 2841 928 2578 
Q 928 2378 1081 2264 
Q 1234 2150 1697 2047 
L 1894 2003 
Q 2506 1872 2764 1633 
Q 3022 1394 3022 966 
Q 3022 478 2636 193 
Q 2250 -91 1575 -91 
Q 1294 -91 989 -36 
Q 684 19 347 128 
L 347 722 
Q 666 556 975 473 
Q 1284 391 1588 391 
Q 1994 391 2212 530 
Q 2431 669 2431 922 
Q 2431 1156 2273 1281 
Q 2116 1406 1581 1522 
L 1381 1569 
Q 847 1681 609 1914 
Q 372 2147 372 2553 
Q 372 3047 722 3315 
Q 1072 3584 1716 3584 
Q 2034 3584 2315 3537 
Q 2597 3491 2834 3397 
z
" transform="scale(0.015625)"/>
       <path id="DejaVuSans-61" d="M 2194 1759 
Q 1497 1759 1228 1600 
Q 959 1441 959 1056 
Q 959 750 1161 570 
Q 1363 391 1709 391 
Q 2188 391 2477 730 
Q 2766 1069 2766 1631 
L 2766 1759 
L 2194 1759 
z
M 3341 1997 
L 3341 0 
L 2766 0 
L 2766 531 
Q 2569 213 2275 61 
Q 1981 -91 1556 -91 
Q 1019 -91 701 211 
Q 384 513 384 1019 
Q 384 1609 779 1909 
Q 1175 2209 1959 2209 
L 2766 2209 
L 2766 2266 
Q 2766 2663 2505 2880 
Q 2244 3097 1772 3097 
Q 1472 3097 1187 3025 
Q 903 2953 641 2809 
L 641 3341 
Q 956 3463 1253 3523 
Q 1550 3584 1831 3584 
Q 2591 3584 2966 3190 
Q 3341 2797 3341 1997 
z
" transform="scale(0.015625)"/>
       <path id="DejaVuSans-67" d="M 2906 1791 
Q 2906 2416 2648 2759 
Q 2391 3103 1925 3103 
Q 1463 3103 1205 2759 
Q 947 2416 947 1791 
Q 947 1169 1205 825 
Q 1463 481 1925 481 
Q 2391 481 2648 825 
Q 2906 1169 2906 1791 
z
M 3481 434 
Q 3481 -459 3084 -895 
Q 2688 -1331 1869 -1331 
Q 1566 -1331 1297 -1286 
Q 1028 -1241 775 -1147 
L 775 -588 
Q 1028 -725 1275 -790 
Q 1522 -856 1778 -856 
Q 2344 -856 2625 -561 
Q 2906 -266 2906 331 
L 2906 616 
Q 2728 306 2450 153 
Q 2172 0 1784 0 
Q 1141 0 747 490 
Q 353 981 353 1791 
Q 353 2603 747 3093 
Q 1141 3584 1784 3584 
Q 2172 3584 2450 3431 
Q 2728 3278 2906 2969 
L 2906 3500 
L 3481 3500 
L 3481 434 
z
" transform="scale(0.015625)"/>
       <path id="DejaVuSans-20" transform="scale(0.015625)"/>
       <path id="DejaVuSans-52" d="M 2841 2188 
Q 3044 2119 3236 1894 
Q 3428 1669 3622 1275 
L 4263 0 
L 3584 0 
L 2988 1197 
Q 2756 1666 2539 1819 
Q 2322 1972 1947 1972 
L 1259 1972 
L 1259 0 
L 628 0 
L 628 4666 
L 2053 4666 
Q 2853 4666 3247 4331 
Q 3641 3997 3641 3322 
Q 3641 2881 3436 2590 
Q 3231 2300 2841 2188 
z
M 1259 4147 
L 1259 2491 
L 2053 2491 
Q 2509 2491 2742 2702 
Q 2975 2913 2975 3322 
Q 2975 3731 2742 3939 
Q 2509 4147 2053 4147 
L 1259 4147 
z
" transform="scale(0.015625)"/>
      </defs>
      <use xlink:href="#DejaVuSans-55"/>
      <use xlink:href="#DejaVuSans-73" transform="translate(73.193359 0)"/>
      <use xlink:href="#DejaVuSans-61" transform="translate(125.292969 0)"/>
      <use xlink:href="#DejaVuSans-67" transform="translate(186.572266 0)"/>
      <use xlink:href="#DejaVuSans-65" transform="translate(250.048828 0)"/>
      <use xlink:href="#DejaVuSans-20" transform="translate(311.572266 0)"/>
      <use xlink:href="#DejaVuSans-52" transform="translate(343.359375 0)"/>
      <use xlink:href="#DejaVuSans-61" transform="translate(410.591797 0)"/>
      <use xlink:href="#DejaVuSans-74" transform="translate(471.871094 0)"/>
      <use xlink:href="#DejaVuSans-65" transform="translate(511.080078 0)"/>
     </g>
    </g>
   </g>
   <g id="line2d_12">
    <path d="M 100.242273 299.681051 
L 108.181281 303.142885 
L 116.120289 314.85697 
L 124.059298 309.893094 
L 131.998306 314.427579 
L 139.937314 340.500867 
L 147.876322 332.565518 
L 155.815331 330.298276 
L 163.754339 337.529394 
L 171.693347 345.842616 
L 179.632355 336.773647 
L 187.571364 356.045207 
L 195.510372 360.201818 
L 203.44938 329.97192 
L 211.388388 338.285142 
L 219.327397 341.686005 
L 227.266405 308.433117 
L 235.205413 299.742021 
L 243.144421 284.249198 
L 251.08343 212.075316 
L 259.022438 165.974721 
L 266.961446 169.753458 
L 274.900455 131.210337 
L 282.839463 113.450272 
L 290.778471 143.68017 
L 298.717479 162.573857 
L 306.656488 136.878443 
L 314.595496 153.504887 
L 322.534504 164.841099 
L 330.473512 152.371266 
L 338.412521 156.527877 
L 346.351529 158.79512 
L 354.290537 138.389938 
L 362.229545 119.496252 
L 370.168554 123.652863 
L 378.107562 112.694524 
L 386.04657 99.846818 
L 393.985579 117.229009 
L 401.924587 119.118378 
L 409.863595 80.953131 
L 417.802603 83.220373 
L 425.741612 91.911469 
L 433.68062 89.644227 
L 441.619628 99.846818 
L 449.558636 127.053726 
L 457.497645 109.293661 
L 465.436653 116.095388 
L 473.375661 139.145686 
L 481.314669 143.68017 
L 489.253678 136.500569 
L 497.192686 153.044538 
L 505.131694 146.242811 
L 513.070702 106.188196 
L 521.009711 97.874974 
L 528.948719 93.340489 
L 536.887727 65.838182 
" clip-path="url(#p2f80c90627)" style="fill: none; stroke: #0087ff; stroke-width: 2.5; stroke-linecap: square"/>
    <defs>
     <path id="m555b494885" d="M 0 2.5 
C 0.663008 2.5 1.29895 2.236584 1.767767 1.767767 
C 2.236584 1.29895 2.5 0.663008 2.5 0 
C 2.5 -0.663008 2.236584 -1.29895 1.767767 -1.767767 
C 1.29895 -2.236584 0.663008 -2.5 0 -2.5 
C -0.663008 -2.5 -1.29895 -2.236584 -1.767767 -1.767767 
C -2.236584 -1.29895 -2.5 -0.663008 -2.5 0 
C -2.5 0.663008 -2.236584 1.29895 -1.767767 1.767767 
C -1.29895 2.236584 -0.663008 2.5 0 2.5 
z
" style="stroke: #0087ff"/>
    </defs>
    <g clip-path="url(#p2f80c90627)">
     <use xlink:href="#m555b494885" x="100.242273" y="299.681051" style="fill: #0087ff; stroke: #0087ff"/>
     <use xlink:href="#m555b494885" x="108.181281" y="303.142885" style="fill: #0087ff; stroke: #0087ff"/>
     <use xlink:href="#m555b494885" x="116.120289" y="314.85697" style="fill: #0087ff; stroke: #0087ff"/>
     <use xlink:href="#m555b494885" x="124.059298" y="309.893094" style="fill: #0087ff; stroke: #0087ff"/>
     <use xlink:href="#m555b494885" x="131.998306" y="314.427579" style="fill: #0087ff; stroke: #0087ff"/>
     <use xlink:href="#m555b494885" x="139.937314" y="340.500867" style="fill: #0087ff; stroke: #0087ff"/>
     <use xlink:href="#m555b494885" x="147.876322" y="332.565518" style="fill: #0087ff; stroke: #0087ff"/>
     <use xlink:href="#m555b494885" x="155.815331" y="330.298276" style="fill: #0087ff; stroke: #0087ff"/>
     <use xlink:href="#m555b494885" x="163.754339" y="337.529394" style="fill: #0087ff; stroke: #0087ff"/>
     <use xlink:href="#m555b494885" x="171.693347" y="345.842616" style="fill: #0087ff; stroke: #0087ff"/>
     <use xlink:href="#m555b494885" x="179.632355" y="336.773647" style="fill: #0087ff; stroke: #0087ff"/>
     <use xlink:href="#m555b494885" x="187.571364" y="356.045207" style="fill: #0087ff; stroke: #0087ff"/>
     <use xlink:href="#m555b494885" x="195.510372" y="360.201818" style="fill: #0087ff; stroke: #0087ff"/>
     <use xlink:href="#m555b494885" x="203.44938" y="329.97192" style="fill: #0087ff; stroke: #0087ff"/>
     <use xlink:href="#m555b494885" x="211.388388" y="338.285142" style="fill: #0087ff; stroke: #0087ff"/>
     <use xlink:href="#m555b494885" x="219.327397" y="341.686005" style="fill: #0087ff; stroke: #0087ff"/>
     <use xlink:href="#m555b494885" x="227.266405" y="308.433117" style="fill: #0087ff; stroke: #0087ff"/>
     <use xlink:href="#m555b494885" x="235.205413" y="299.742021" style="fill: #0087ff; stroke: #0087ff"/>
     <use xlink:href="#m555b494885" x="243.144421" y="284.249198" style="fill: #0087ff; stroke: #0087ff"/>
     <use xlink:href="#m555b494885" x="251.08343" y="212.075316" style="fill: #0087ff; stroke: #0087ff"/>
     <use xlink:href="#m555b494885" x="259.022438" y="165.974721" style="fill: #0087ff; stroke: #0087ff"/>
     <use xlink:href="#m555b494885" x="266.961446" y="169.753458" style="fill: #0087ff; stroke: #0087ff"/>
     <use xlink:href="#m555b494885" x="274.900455" y="131.210337" style="fill: #0087ff; stroke: #0087ff"/>
     <use xlink:href="#m555b494885" x="282.839463" y="113.450272" style="fill: #0087ff; stroke: #0087ff"/>
     <use xlink:href="#m555b494885" x="290.778471" y="143.68017" style="fill: #0087ff; stroke: #0087ff"/>
     <use xlink:href="#m555b494885" x="298.717479" y="162.573857" style="fill: #0087ff; stroke: #0087ff"/>
     <use xlink:href="#m555b494885" x="306.656488" y="136.878443" style="fill: #0087ff; stroke: #0087ff"/>
     <use xlink:href="#m555b494885" x="314.595496" y="153.504887" style="fill: #0087ff; stroke: #0087ff"/>
     <use xlink:href="#m555b494885" x="322.534504" y="164.841099" style="fill: #0087ff; stroke: #0087ff"/>
     <use xlink:href="#m555b494885" x="330.473512" y="152.371266" style="fill: #0087ff; stroke: #0087ff"/>
     <use xlink:href="#m555b494885" x="338.412521" y="156.527877" style="fill: #0087ff; stroke: #0087ff"/>
     <use xlink:href="#m555b494885" x="346.351529" y="158.79512" style="fill: #0087ff; stroke: #0087ff"/>
     <use xlink:href="#m555b494885" x="354.290537" y="138.389938" style="fill: #0087ff; stroke: #0087ff"/>
     <use xlink:href="#m555b494885" x="362.229545" y="119.496252" style="fill: #0087ff; stroke: #0087ff"/>
     <use xlink:href="#m555b494885" x="370.168554" y="123.652863" style="fill: #0087ff; stroke: #0087ff"/>
     <use xlink:href="#m555b494885" x="378.107562" y="112.694524" style="fill: #0087ff; stroke: #0087ff"/>
     <use xlink:href="#m555b494885" x="386.04657" y="99.846818" style="fill: #0087ff; stroke: #0087ff"/>
     <use xlink:href="#m555b494885" x="393.985579" y="117.229009" style="fill: #0087ff; stroke: #0087ff"/>
     <use xlink:href="#m555b494885" x="401.924587" y="119.118378" style="fill: #0087ff; stroke: #0087ff"/>
     <use xlink:href="#m555b494885" x="409.863595" y="80.953131" style="fill: #0087ff; stroke: #0087ff"/>
     <use xlink:href="#m555b494885" x="417.802603" y="83.220373" style="fill: #0087ff; stroke: #0087ff"/>
     <use xlink:href="#m555b494885" x="425.741612" y="91.911469" style="fill: #0087ff; stroke: #0087ff"/>
     <use xlink:href="#m555b494885" x="433.68062" y="89.644227" style="fill: #0087ff; stroke: #0087ff"/>
     <use xlink:href="#m555b494885" x="441.619628" y="99.846818" style="fill: #0087ff; stroke: #0087ff"/>
     <use xlink:href="#m555b494885" x="449.558636" y="127.053726" style="fill: #0087ff; stroke: #0087ff"/>
     <use xlink:href="#m555b494885" x="457.497645" y="109.293661" style="fill: #0087ff; stroke: #0087ff"/>
     <use xlink:href="#m555b494885" x="465.436653" y="116.095388" style="fill: #0087ff; stroke: #0087ff"/>
     <use xlink:href="#m555b494885" x="473.375661" y="139.145686" style="fill: #0087ff; stroke: #0087ff"/>
     <use xlink:href="#m555b494885" x="481.314669" y="143.68017" style="fill: #0087ff; stroke: #0087ff"/>
     <use xlink:href="#m555b494885" x="489.253678" y="136.500569" style="fill: #0087ff; stroke: #0087ff"/>
     <use xlink:href="#m555b494885" x="497.192686" y="153.044538" style="fill: #0087ff; stroke: #0087ff"/>
     <use xlink:href="#m555b494885" x="505.131694" y="146.242811" style="fill: #0087ff; stroke: #0087ff"/>
     <use xlink:href="#m555b494885" x="513.070702" y="106.188196" style="fill: #0087ff; stroke: #0087ff"/>
     <use xlink:href="#m555b494885" x="521.009711" y="97.874974" style="fill: #0087ff; stroke: #0087ff"/>
     <use xlink:href="#m555b494885" x="528.948719" y="93.340489" style="fill: #0087ff; stroke: #0087ff"/>
     <use xlink:href="#m555b494885" x="536.887727" y="65.838182" style="fill: #0087ff; stroke: #0087ff"/>
    </g>
   </g>
   <g id="patch_3">
    <path d="M 78.41 374.92 
L 78.41 51.12 
" style="fill: none; stroke: #f5f5f5; stroke-width: 0.8; stroke-linejoin: miter; stroke-linecap: square"/>
   </g>
   <g id="patch_4">
    <path d="M 558.72 374.92 
L 558.72 51.12 
" style="fill: none; stroke: #f5f5f5; stroke-width: 0.8; stroke-linejoin: miter; stroke-linecap: square"/>
   </g>
   <g id="patch_5">
    <path d="M 78.41 374.92 
L 558.72 374.92 
" style="fill: none; stroke: #f5f5f5; stroke-width: 0.8; stroke-linejoin: miter; stroke-linecap: square"/>
   </g>
   <g id="patch_6">
    <path d="M 78.41 51.12 
L 558.72 51.12 
" style="fill: none; stroke: #f5f5f5; stroke-width: 0.8; stroke-linejoin: miter; stroke-linecap: square"/>
   </g>
   <g id="text_14">
    <!-- Coding Tool Usage Rate -->
    <g style="fill: #f5f5f5" transform="translate(185.611875 33.12) scale(0.2 -0.2)">
     <defs>
      <path id="DejaVuSans-Bold-43" d="M 4288 256 
Q 3956 84 3597 -3 
Q 3238 -91 2847 -91 
Q 1681 -91 1000 561 
Q 319 1213 319 2328 
Q 319 3447 1000 4098 
Q 1681 4750 2847 4750 
Q 3238 4750 3597 4662 
Q 3956 4575 4288 4403 
L 4288 3438 
Q 3953 3666 3628 3772 
Q 3303 3878 2944 3878 
Q 2300 3878 1931 3465 
Q 1563 3053 1563 2328 
Q 1563 1606 1931 1193 
Q 2300 781 2944 781 
Q 3303 781 3628 887 
Q 3953 994 4288 1222 
L 4288 256 
z
" transform="scale(0.015625)"/>
      <path id="DejaVuSans-Bold-6f" d="M 2203 2784 
Q 1831 2784 1636 2517 
Q 1441 2250 1441 1747 
Q 1441 1244 1636 976 
Q 1831 709 2203 709 
Q 2569 709 2762 976 
Q 2956 1244 2956 1747 
Q 2956 2250 2762 2517 
Q 2569 2784 2203 2784 
z
M 2203 3584 
Q 3106 3584 3614 3096 
Q 4122 2609 4122 1747 
Q 4122 884 3614 396 
Q 3106 -91 2203 -91 
Q 1297 -91 786 396 
Q 275 884 275 1747 
Q 275 2609 786 3096 
Q 1297 3584 2203 3584 
z
" transform="scale(0.015625)"/>
      <path id="DejaVuSans-Bold-64" d="M 2919 2988 
L 2919 4863 
L 4044 4863 
L 4044 0 
L 2919 0 
L 2919 506 
Q 2688 197 2409 53 
Q 2131 -91 1766 -91 
Q 1119 -91 703 423 
Q 288 938 288 1747 
Q 288 2556 703 3070 
Q 1119 3584 1766 3584 
Q 2128 3584 2408 3439 
Q 2688 3294 2919 2988 
z
M 2181 722 
Q 2541 722 2730 984 
Q 2919 1247 2919 1747 
Q 2919 2247 2730 2509 
Q 2541 2772 2181 2772 
Q 1825 2772 1636 2509 
Q 1447 2247 1447 1747 
Q 1447 1247 1636 984 
Q 1825 722 2181 722 
z
" transform="scale(0.015625)"/>
      <path id="DejaVuSans-Bold-69" d="M 538 3500 
L 1656 3500 
L 1656 0 
L 538 0 
L 538 3500 
z
M 538 4863 
L 1656 4863 
L 1656 3950 
L 538 3950 
L 538 4863 
z
" transform="scale(0.015625)"/>
      <path id="DejaVuSans-Bold-6e" d="M 4056 2131 
L 4056 0 
L 2931 0 
L 2931 347 
L 2931 1631 
Q 2931 2084 2911 2256 
Q 2891 2428 2841 2509 
Q 2775 2619 2662 2680 
Q 2550 2741 2406 2741 
Q 2056 2741 1856 2470 
Q 1656 2200 1656 1722 
L 1656 0 
L 538 0 
L 538 3500 
L 1656 3500 
L 1656 2988 
Q 1909 3294 2193 3439 
Q 2478 3584 2822 3584 
Q 3428 3584 3742 3212 
Q 4056 2841 4056 2131 
z
" transform="scale(0.015625)"/>
      <path id="DejaVuSans-Bold-67" d="M 2919 594 
Q 2688 288 2409 144 
Q 2131 0 1766 0 
Q 1125 0 706 504 
Q 288 1009 288 1791 
Q 288 2575 706 3076 
Q 1125 3578 1766 3578 
Q 2131 3578 2409 3434 
Q 2688 3291 2919 2981 
L 2919 3500 
L 4044 3500 
L 4044 353 
Q 4044 -491 3511 -936 
Q 2978 -1381 1966 -1381 
Q 1638 -1381 1331 -1331 
Q 1025 -1281 716 -1178 
L 716 -306 
Q 1009 -475 1290 -558 
Q 1572 -641 1856 -641 
Q 2406 -641 2662 -400 
Q 2919 -159 2919 353 
L 2919 594 
z
M 2181 2772 
Q 1834 2772 1640 2515 
Q 1447 2259 1447 1791 
Q 1447 1309 1634 1061 
Q 1822 813 2181 813 
Q 2531 813 2725 1069 
Q 2919 1325 2919 1791 
Q 2919 2259 2725 2515 
Q 2531 2772 2181 2772 
z
" transform="scale(0.015625)"/>
      <path id="DejaVuSans-Bold-20" transform="scale(0.015625)"/>
      <path id="DejaVuSans-Bold-54" d="M 31 4666 
L 4331 4666 
L 4331 3756 
L 2784 3756 
L 2784 0 
L 1581 0 
L 1581 3756 
L 31 3756 
L 31 4666 
z
" transform="scale(0.015625)"/>
      <path id="DejaVuSans-Bold-6c" d="M 538 4863 
L 1656 4863 
L 1656 0 
L 538 0 
L 538 4863 
z
" transform="scale(0.015625)"/>
      <path id="DejaVuSans-Bold-55" d="M 588 4666 
L 1791 4666 
L 1791 1869 
Q 1791 1291 1980 1042 
Q 2169 794 2597 794 
Q 3028 794 3217 1042 
Q 3406 1291 3406 1869 
L 3406 4666 
L 4609 4666 
L 4609 1869 
Q 4609 878 4112 393 
Q 3616 -91 2597 -91 
Q 1581 -91 1084 393 
Q 588 878 588 1869 
L 588 4666 
z
" transform="scale(0.015625)"/>
      <path id="DejaVuSans-Bold-73" d="M 3272 3391 
L 3272 2541 
Q 2913 2691 2578 2766 
Q 2244 2841 1947 2841 
Q 1628 2841 1473 2761 
Q 1319 2681 1319 2516 
Q 1319 2381 1436 2309 
Q 1553 2238 1856 2203 
L 2053 2175 
Q 2913 2066 3209 1816 
Q 3506 1566 3506 1031 
Q 3506 472 3093 190 
Q 2681 -91 1863 -91 
Q 1516 -91 1145 -36 
Q 775 19 384 128 
L 384 978 
Q 719 816 1070 734 
Q 1422 653 1784 653 
Q 2113 653 2278 743 
Q 2444 834 2444 1013 
Q 2444 1163 2330 1236 
Q 2216 1309 1875 1350 
L 1678 1375 
Q 931 1469 631 1722 
Q 331 1975 331 2491 
Q 331 3047 712 3315 
Q 1094 3584 1881 3584 
Q 2191 3584 2531 3537 
Q 2872 3491 3272 3391 
z
" transform="scale(0.015625)"/>
      <path id="DejaVuSans-Bold-61" d="M 2106 1575 
Q 1756 1575 1579 1456 
Q 1403 1338 1403 1106 
Q 1403 894 1545 773 
Q 1688 653 1941 653 
Q 2256 653 2472 879 
Q 2688 1106 2688 1447 
L 2688 1575 
L 2106 1575 
z
M 3816 1997 
L 3816 0 
L 2688 0 
L 2688 519 
Q 2463 200 2181 54 
Q 1900 -91 1497 -91 
Q 953 -91 614 226 
Q 275 544 275 1050 
Q 275 1666 698 1953 
Q 1122 2241 2028 2241 
L 2688 2241 
L 2688 2328 
Q 2688 2594 2478 2717 
Q 2269 2841 1825 2841 
Q 1466 2841 1156 2769 
Q 847 2697 581 2553 
L 581 3406 
Q 941 3494 1303 3539 
Q 1666 3584 2028 3584 
Q 2975 3584 3395 3211 
Q 3816 2838 3816 1997 
z
" transform="scale(0.015625)"/>
      <path id="DejaVuSans-Bold-65" d="M 4031 1759 
L 4031 1441 
L 1416 1441 
Q 1456 1047 1700 850 
Q 1944 653 2381 653 
Q 2734 653 3104 758 
Q 3475 863 3866 1075 
L 3866 213 
Q 3469 63 3072 -14 
Q 2675 -91 2278 -91 
Q 1328 -91 801 392 
Q 275 875 275 1747 
Q 275 2603 792 3093 
Q 1309 3584 2216 3584 
Q 3041 3584 3536 3087 
Q 4031 2591 4031 1759 
z
M 2881 2131 
Q 2881 2450 2695 2645 
Q 2509 2841 2209 2841 
Q 1884 2841 1681 2658 
Q 1478 2475 1428 2131 
L 2881 2131 
z
" transform="scale(0.015625)"/>
      <path id="DejaVuSans-Bold-52" d="M 2297 2597 
Q 2675 2597 2839 2737 
Q 3003 2878 3003 3200 
Q 3003 3519 2839 3656 
Q 2675 3794 2297 3794 
L 1791 3794 
L 1791 2597 
L 2297 2597 
z
M 1791 1766 
L 1791 0 
L 588 0 
L 588 4666 
L 2425 4666 
Q 3347 4666 3776 4356 
Q 4206 4047 4206 3378 
Q 4206 2916 3982 2619 
Q 3759 2322 3309 2181 
Q 3556 2125 3751 1926 
Q 3947 1728 4147 1325 
L 4800 0 
L 3519 0 
L 2950 1159 
Q 2778 1509 2601 1637 
Q 2425 1766 2131 1766 
L 1791 1766 
z
" transform="scale(0.015625)"/>
      <path id="DejaVuSans-Bold-74" d="M 1759 4494 
L 1759 3500 
L 2913 3500 
L 2913 2700 
L 1759 2700 
L 1759 1216 
Q 1759 972 1856 886 
Q 1953 800 2241 800 
L 2816 800 
L 2816 0 
L 1856 0 
Q 1194 0 917 276 
Q 641 553 641 1216 
L 641 2700 
L 84 2700 
L 84 3500 
L 641 3500 
L 641 4494 
L 1759 4494 
z
" transform="scale(0.015625)"/>
     </defs>
     <use xlink:href="#DejaVuSans-Bold-43"/>
     <use xlink:href="#DejaVuSans-Bold-6f" transform="translate(73.388672 0)"/>
     <use xlink:href="#DejaVuSans-Bold-64" transform="translate(142.089844 0)"/>
     <use xlink:href="#DejaVuSans-Bold-69" transform="translate(213.671875 0)"/>
     <use xlink:href="#DejaVuSans-Bold-6e" transform="translate(247.949219 0)"/>
     <use xlink:href="#DejaVuSans-Bold-67" transform="translate(319.140625 0)"/>
     <use xlink:href="#DejaVuSans-Bold-20" transform="translate(390.722656 0)"/>
     <use xlink:href="#DejaVuSans-Bold-54" transform="translate(425.537109 0)"/>
     <use xlink:href="#DejaVuSans-Bold-6f" transform="translate(480.5 0)"/>
     <use xlink:href="#DejaVuSans-Bold-6f" transform="translate(549.201172 0)"/>
     <use xlink:href="#DejaVuSans-Bold-6c" transform="translate(617.902344 0)"/>
     <use xlink:href="#DejaVuSans-Bold-20" transform="translate(652.179688 0)"/>
     <use xlink:href="#DejaVuSans-Bold-55" transform="translate(686.994141 0)"/>
     <use xlink:href="#DejaVuSans-Bold-73" transform="translate(768.195312 0)"/>
     <use xlink:href="#DejaVuSans-Bold-61" transform="translate(827.716797 0)"/>
     <use xlink:href="#DejaVuSans-Bold-67" transform="translate(895.197266 0)"/>
     <use xlink:href="#DejaVuSans-Bold-65" transform="translate(966.779297 0)"/>
     <use xlink:href="#DejaVuSans-Bold-20" transform="translate(1034.601562 0)"/>
     <use xlink:href="#DejaVuSans-Bold-52" transform="translate(1069.416016 0)"/>
     <use xlink:href="#DejaVuSans-Bold-61" transform="translate(1146.417969 0)"/>
     <use xlink:href="#DejaVuSans-Bold-74" transform="translate(1213.898438 0)"/>
     <use xlink:href="#DejaVuSans-Bold-65" transform="translate(1261.701172 0)"/>
    </g>
   </g>
  </g>
 </g>
 <defs>
  <clipPath id="p2f80c90627">
   <rect x="78.41" y="51.12" width="480.31" height="323.8"/>
  </clipPath>
 </defs>
</svg>
